/* XPM */
static char * gtk_goto_top_xpm[] = {
"24 24 263 2",
"  	c None",
". 	c #A9B3BF",
"+ 	c #B2C5D2",
"@ 	c #B3CCDC",
"# 	c #B4CFDE",
"$ 	c #B3CAD9",
"% 	c #B0BFCB",
"& 	c #9AA5B3",
"* 	c #C2DBED",
"= 	c #B0DFF6",
"- 	c #9EDEF8",
"; 	c #92E0FA",
"> 	c #8EE1FB",
", 	c #95DFF9",
"' 	c #A5DEF7",
") 	c #BBE0F5",
"! 	c #BCCDDC",
"~ 	c #ADBED0",
"{ 	c #AAD0EF",
"] 	c #85C2EA",
"^ 	c #78C4EC",
"/ 	c #78CBF0",
"( 	c #79D0F2",
"_ 	c #7DD2F3",
": 	c #78CEF1",
"< 	c #77C8EE",
"[ 	c #7AC1EA",
"} 	c #93C6EB",
"| 	c #B8D2E9",
"1 	c #8C96A5",
"2 	c #A1B2CA",
"3 	c #8FB5E2",
"4 	c #69A2D9",
"5 	c #69AADD",
"6 	c #6DB3E3",
"7 	c #6FB9E5",
"8 	c #94C8E7",
"9 	c #BBD8EB",
"0 	c #86C2E6",
"a 	c #6CB7E4",
"b 	c #69AFE0",
"c 	c #65A4DA",
"d 	c #71A4DA",
"e 	c #A7C1E2",
"f 	c #818EA5",
"g 	c #83A2D6",
"h 	c #5081C6",
"i 	c #5289CB",
"j 	c #5794D1",
"k 	c #5B9CD5",
"l 	c #89B6DD",
"m 	c #E5EDF4",
"n 	c #FEFDFD",
"o 	c #CFDFEE",
"p 	c #6FA7D8",
"q 	c #5697D3",
"r 	c #528DCE",
"s 	c #4A80C7",
"t 	c #5F89CB",
"u 	c #99ADD1",
"v 	c #849AC9",
"w 	c #3E63B6",
"x 	c #3361B4",
"y 	c #3B6EBB",
"z 	c #3F77C1",
"A 	c #6C98CE",
"B 	c #DAE3F0",
"C 	c #FDFDFD",
"D 	c #FBFCFD",
"E 	c #F6F8FB",
"F 	c #B0C5E0",
"G 	c #4A80C4",
"H 	c #3B72BE",
"I 	c #3466B8",
"J 	c #2C59B0",
"K 	c #6583C5",
"L 	c #7B89A5",
"M 	c #7E8BA5",
"N 	c #536CB6",
"O 	c #183CA0",
"P 	c #224AA8",
"Q 	c #2855AE",
"R 	c #4771B9",
"S 	c #C6D2E6",
"T 	c #F9FAFC",
"U 	c #F7F8FB",
"V 	c #F4F6FB",
"W 	c #F3F6FA",
"X 	c #E7ECF4",
"Y 	c #809BCA",
"Z 	c #2F5DB1",
"` 	c #2753AC",
" .	c #1D44A4",
"..	c #3150AA",
"+.	c #7486B5",
"@.	c #6878A3",
"#.	c #3047A2",
"$.	c #0F2C95",
"%.	c #183A9D",
"&.	c #2A4EA6",
"*.	c #9CADD3",
"=.	c #F2F4F9",
"-.	c #F1F4F9",
";.	c #EEF1F8",
">.	c #EBEFF6",
",.	c #E7ECF5",
"'.	c #E5EBF4",
").	c #C3CDE2",
"!.	c #4B69B0",
"~.	c #1B41A0",
"{.	c #16379B",
"].	c #132E96",
"^.	c #6074B3",
"/.	c #59699E",
"(.	c #1D3195",
"_.	c #071E8B",
":.	c #0F2A91",
"<.	c #687BB8",
"[.	c #DCE0ED",
"}.	c #D5DAE9",
"|.	c #D5DAEA",
"1.	c #E2E7F2",
"2.	c #DDE3F0",
"3.	c #CFD6E8",
"4.	c #AEB9D6",
"5.	c #C1C9E1",
"6.	c #8897C4",
"7.	c #203B98",
"8.	c #0C268F",
"9.	c #0A208C",
"0.	c #4C5FA9",
"a.	c #4F5F97",
"b.	c #192C91",
"c.	c #021684",
"d.	c #172A8D",
"e.	c #7783B8",
"f.	c #7683B9",
"g.	c #3A509F",
"h.	c #8F9CC7",
"i.	c #D3D9EB",
"j.	c #CBD3E8",
"k.	c #ABB5D4",
"l.	c #3C54A2",
"m.	c #3E539F",
"n.	c #717EB5",
"o.	c #2C3E94",
"p.	c #081C87",
"q.	c #10238B",
"r.	c #4759A4",
"s.	c #46568C",
"t.	c #1C2F91",
"u.	c #021582",
"v.	c #071A84",
"w.	c #0D2186",
"x.	c #0A238A",
"y.	c #183491",
"z.	c #7E8EBF",
"A.	c #BFC9E2",
"B.	c #B8C3DF",
"C.	c #99A7CC",
"D.	c #304B9D",
"E.	c #0D2A8E",
"F.	c #102789",
"G.	c #102386",
"H.	c #102389",
"I.	c #1A2C8E",
"J.	c #4A5BA1",
"K.	c #4D5B86",
"L.	c #253891",
"M.	c #031681",
"N.	c #061C84",
"O.	c #0D288B",
"P.	c #153594",
"Q.	c #214299",
"R.	c #758ABD",
"S.	c #AFBFDD",
"T.	c #ACBCDC",
"U.	c #92A3CA",
"V.	c #3757A4",
"W.	c #1A3D98",
"X.	c #183693",
"Y.	c #18308F",
"Z.	c #1B2E8D",
"`.	c #2C3D96",
" +	c #475795",
".+	c #354791",
"++	c #1A2E8C",
"@+	c #1C3691",
"#+	c #27479B",
"$+	c #2F55A4",
"%+	c #365EA8",
"&+	c #7792C1",
"*+	c #ADC2DF",
"=+	c #ACC1DF",
"-+	c #94A9CE",
";+	c #4970B1",
">+	c #355FAA",
",+	c #3459A6",
"'+	c #3351A1",
")+	c #33499B",
"!+	c #4557A1",
"~+	c #425183",
"{+	c #364576",
"]+	c #465BA2",
"^+	c #455FA7",
"/+	c #4C6EB0",
"(+	c #557BB9",
"_+	c #5881BB",
":+	c #86A4CB",
"<+	c #B6CDE6",
"[+	c #9DB5D5",
"}+	c #6991C3",
"|+	c #5E89C1",
"1+	c #5C82BC",
"2+	c #5B79B6",
"3+	c #5E75B3",
"4+	c #5567A1",
"5+	c #4A5D92",
"6+	c #6B85BC",
"7+	c #7190C3",
"8+	c #789CCB",
"9+	c #779ECB",
"0+	c #94B2D3",
"a+	c #BED7EB",
"b+	c #BED8EB",
"c+	c #A5BFDA",
"d+	c #86ADD3",
"e+	c #82ABD4",
"f+	c #80A3CE",
"g+	c #819ECB",
"h+	c #748ABA",
"i+	c #37456F",
"j+	c #5A6E9D",
"k+	c #8CA7CE",
"l+	c #99BADB",
"m+	c #98BCDB",
"n+	c #9ABAD7",
"o+	c #ABC8DF",
"p+	c #AECBE1",
"q+	c #9FBDD8",
"r+	c #9EC4E0",
"s+	c #A2C6E3",
"t+	c #A0BFDD",
"u+	c #87A0C6",
"v+	c #3C4B75",
"w+	c #51638D",
"x+	c #8FA9CA",
"y+	c #B5D3E9",
"z+	c #BCDDEF",
"A+	c #BCE0F1",
"B+	c #BDE2F2",
"C+	c #C0E4F4",
"D+	c #BEDFF0",
"E+	c #AFCBE2",
"F+	c #7A91B4",
"G+	c #38476C",
"H+	c #576A8F",
"I+	c #8198B5",
"J+	c #9BB4CB",
"K+	c #A3BDD2",
"L+	c #92AAC4",
"M+	c #7388A7",
"N+	c #48587B",
"                                                ",
"                                                ",
"                                                ",
"                  . + @ # $ %                   ",
"              & * = - ; > , ' ) !               ",
"            ~ { ] ^ / ( _ : < [ } | 1           ",
"          2 3 4 5 6 7 8 9 0 a b c d e           ",
"        f g h i j k l m n o p q r s t u         ",
"        v w x y z A B C D E F G H I J K L       ",
"      M N O P Q R S T U V W X Y Z `  ...+.      ",
"      @.#.$.%.&.*.=.-.;.>.,.'.).!.~.{.].^.      ",
"      /.(._.:.<.[.}.|.1.2.3.4.5.6.7.8.9.0.      ",
"      a.b.c.d.e.f.g.h.i.j.k.l.m.n.o.p.q.r.      ",
"      s.t.u.v.w.x.y.z.A.B.C.D.E.F.G.H.I.J.      ",
"      K.L.M.N.O.P.Q.R.S.T.U.V.W.X.Y.Z.`. +      ",
"        .+++@+#+$+%+&+*+=+-+;+>+,+'+)+!+~+      ",
"        {+]+^+/+(+_+:+<+<+[+}+|+1+2+3+4+        ",
"          5+6+7+8+9+0+a+b+c+d+e+f+g+h+i+        ",
"            j+k+l+m+n+o+p+q+r+s+t+u+v+          ",
"              w+x+y+z+A+B+C+D+E+F+G+            ",
"                  H+I+J+K+L+M+N+                ",
"                                                ",
"                                                ",
"                                                "};
