/* XPM */
static char * close_pressed_xpm[] = {
"16 19 176 2",
"  	c None",
". 	c #ECECEC",
"+ 	c #D7D7D7",
"@ 	c #C4C4C4",
"# 	c #C3C3C3",
"$ 	c #BBBBBB",
"% 	c #73767F",
"& 	c #4B4F58",
"* 	c #3B444B",
"= 	c #3A424D",
"- 	c #4B4F5A",
"; 	c #72757C",
"> 	c #8D9194",
", 	c #363C48",
"' 	c #3B414F",
") 	c #505761",
"! 	c #666D77",
"~ 	c #646A76",
"{ 	c #525661",
"] 	c #3C4250",
"^ 	c #363A46",
"/ 	c #8D9095",
"( 	c #919499",
"_ 	c #353D4A",
": 	c #4A5362",
"< 	c #7C838D",
"[ 	c #B6BABD",
"} 	c #EEEEF0",
"| 	c #ECECEE",
"1 	c #B6B7BC",
"2 	c #7A808C",
"3 	c #495263",
"4 	c #363E4B",
"5 	c #909398",
"6 	c #C2C2C2",
"7 	c #B7B9B9",
"8 	c #434A54",
"9 	c #57606F",
"0 	c #838C93",
"a 	c #989DA1",
"b 	c #B7B8BD",
"c 	c #DDDEE2",
"d 	c #DADEDF",
"e 	c #B3B6BB",
"f 	c #575F6C",
"g 	c #424B54",
"h 	c #B9BCBC",
"i 	c #7F848A",
"j 	c #4F5668",
"k 	c #8B949B",
"l 	c #989BA2",
"m 	c #9A9EA7",
"n 	c #A4A9AF",
"o 	c #B8BEBE",
"p 	c #B9BCC1",
"q 	c #A1A9AB",
"r 	c #9A9FA3",
"s 	c #979BA6",
"t 	c #8D9598",
"u 	c #4D5665",
"v 	c #81848B",
"w 	c #5D6371",
"x 	c #717A83",
"y 	c #9CA3A9",
"z 	c #9FA2A9",
"A 	c #A1A6AA",
"B 	c #A2A7AA",
"C 	c #A6A9AE",
"D 	c #A6A9B0",
"E 	c #A0A5A9",
"F 	c #A0A4AD",
"G 	c #9AA1A7",
"H 	c #717986",
"I 	c #5F636E",
"J 	c #C1C1C1",
"K 	c #4E5567",
"L 	c #868F96",
"M 	c #A6AAB3",
"N 	c #ABAFB2",
"O 	c #ABB0B4",
"P 	c #000000",
"Q 	c #ACB1B5",
"R 	c #ABAEB3",
"S 	c #A5ACB2",
"T 	c #878E98",
"U 	c #4E5565",
"V 	c #586170",
"W 	c #919AA3",
"X 	c #B2B5BC",
"Y 	c #B8BCBF",
"Z 	c #B8BDC3",
"` 	c #BBBEC5",
" .	c #B7BCBF",
"..	c #B3B8BC",
"+.	c #939AA4",
"@.	c #596273",
"#.	c #C0C0C0",
"$.	c #7F8696",
"%.	c #969DA7",
"&.	c #BDC0C5",
"*.	c #C2C5CC",
"=.	c #C7CCD0",
"-.	c #C7CAD1",
";.	c #C3C8CC",
">.	c #BEC2C5",
",.	c #969EA9",
"'.	c #818795",
").	c #9DA1AC",
"!.	c #838997",
"~.	c #C5CACE",
"{.	c #CED1D6",
"].	c #D1D5D8",
"^.	c #D7DBDE",
"/.	c #DCDDE1",
"(.	c #D9DDE0",
"_.	c #D8DCDF",
":.	c #D2D5DA",
"<.	c #CCD1D5",
"[.	c #C7CACF",
"}.	c #858D9A",
"|.	c #9DA0A7",
"1.	c #BFBFBF",
"2.	c #B9BABA",
"3.	c #838695",
"4.	c #ACB3BD",
"5.	c #D3D7D8",
"6.	c #DBDFE2",
"7.	c #DDE0E5",
"8.	c #E1E2E4",
"9.	c #E3E4E8",
"0.	c #DFE0E4",
"a.	c #DADFE3",
"b.	c #D3D6DD",
"c.	c #ADB4BE",
"d.	c #828993",
"e.	c #BABABA",
"f.	c #B4B9BD",
"g.	c #8C92A0",
"h.	c #BDC0C7",
"i.	c #DBDEE3",
"j.	c #E0E4E7",
"k.	c #E5E6EA",
"l.	c #D9DEE1",
"m.	c #C0C0C8",
"n.	c #8C94A1",
"o.	c #B2B9C1",
"p.	c #BEBEBE",
"q.	c #C5C5C6",
"r.	c #B7BABF",
"s.	c #93969F",
"t.	c #ACB0BB",
"u.	c #C7CAD3",
"v.	c #D4D7DC",
"w.	c #D3D7DA",
"x.	c #C4CBD3",
"y.	c #ADB1BA",
"z.	c #9598A1",
"A.	c #BABAC2",
"B.	c #C3C3C4",
"C.	c #CDCDD0",
"D.	c #A9ACB3",
"E.	c #9B9FAA",
"F.	c #9CA0AC",
"G.	c #9DA0AF",
"H.	c #9C9EAA",
"I.	c #CBCCCE",
"J.	c #C3C3C2",
"K.	c #BDBDBD",
"L.	c #BFBFBE",
"M.	c #C8C8C7",
"N.	c #DADBDB",
"O.	c #DFDFE1",
"P.	c #DBDBDD",
"Q.	c #C7C7C7",
"R.	c #BEBEBF",
"S.	c #BCBCBC",
". . . . . . . . . . . . . . . . ",
"+ + + + + + + + + + + + + + + + ",
"@ @ @ @ @ @ @ @ @ @ @ @ @ @ @ @ ",
"# # # # $ % & * = - ; $ # # # # ",
"# # # > , ' ) ! ~ { ] ^ / # # # ",
"# # ( _ : < [ } | 1 2 3 4 5 # # ",
"6 7 8 9 0 a b c d e a 0 f g h 6 ",
"6 i j k l m n o p q r s t u v # ",
"6 w x y z A B C D A E F G H I # ",
"J K L M N O P P P P Q R S T U 6 ",
"J V W X Y Z P P P P `  ...+.@.J ",
"#.$.%.&.*.=.P P P P -.;.>.,.'.#.",
"#.).!.~.{.].^./.(._.:.<.[.}.|.#.",
"1.2.3.4.5.6.7.8.9.0.a.b.c.d.e.1.",
"1.1.f.g.h.i.j.k.k.9.l.m.n.o.1.1.",
"p.p.q.r.s.t.u.v.w.x.y.z.A.q.p.p.",
"p.p.p.B.C.D.E.F.G.H.D.I.J.p.p.p.",
"K.K.K.K.L.M.N.O.O.P.Q.R.K.K.K.K.",
"S.S.S.S.S.S.S.S.S.S.S.S.S.S.S.S."};
