/* XPM */
static char * close_active_xpm[] = {
"16 19 185 2",
"  	c None",
". 	c #ECECEC",
"+ 	c #D7D7D7",
"@ 	c #C4C4C4",
"# 	c #C3C3C3",
"$ 	c #BBBBBB",
"% 	c #73767F",
"& 	c #4B4F58",
"* 	c #3B444B",
"= 	c #3A424D",
"- 	c #4B4F5A",
"; 	c #72757C",
"> 	c #8D9194",
", 	c #363C48",
"' 	c #3B414F",
") 	c #505761",
"! 	c #666D77",
"~ 	c #646A76",
"{ 	c #525661",
"] 	c #3C4250",
"^ 	c #363A46",
"/ 	c #8D9095",
"( 	c #919499",
"_ 	c #353D4A",
": 	c #4A5362",
"< 	c #7C838D",
"[ 	c #B6BABD",
"} 	c #EEEEF0",
"| 	c #ECECEE",
"1 	c #B6B7BC",
"2 	c #7A808C",
"3 	c #495263",
"4 	c #363E4B",
"5 	c #909398",
"6 	c #C2C2C2",
"7 	c #B7B9B9",
"8 	c #434A54",
"9 	c #57606F",
"0 	c #838C93",
"a 	c #989DA1",
"b 	c #B7B8BD",
"c 	c #DDDEE2",
"d 	c #DADEDF",
"e 	c #B3B6BB",
"f 	c #575F6C",
"g 	c #424B54",
"h 	c #B9BCBC",
"i 	c #7F848A",
"j 	c #4F5668",
"k 	c #8B949B",
"l 	c #989BA2",
"m 	c #9A9EA7",
"n 	c #A4A9AF",
"o 	c #B8BEBE",
"p 	c #B9BCC1",
"q 	c #A1A9AB",
"r 	c #9A9FA3",
"s 	c #979BA6",
"t 	c #8D9598",
"u 	c #4D5665",
"v 	c #81848B",
"w 	c #5D6371",
"x 	c #717A83",
"y 	c #9CA3A9",
"z 	c #9FA2A9",
"A 	c #A1A6AA",
"B 	c #A2A7AA",
"C 	c #A6A9AE",
"D 	c #A6A9B0",
"E 	c #A0A5A9",
"F 	c #A0A4AD",
"G 	c #9AA1A7",
"H 	c #717986",
"I 	c #5F636E",
"J 	c #C1C1C1",
"K 	c #4E5567",
"L 	c #868F96",
"M 	c #A6AAB3",
"N 	c #ABAFB2",
"O 	c #ABB0B4",
"P 	c #AFB2B7",
"Q 	c #AEB3B7",
"R 	c #ADB2B6",
"S 	c #ACB1B5",
"T 	c #ABAEB3",
"U 	c #A5ACB2",
"V 	c #878E98",
"W 	c #4E5565",
"X 	c #586170",
"Y 	c #919AA3",
"Z 	c #B2B5BC",
"` 	c #B8BCBF",
" .	c #B8BDC3",
"..	c #BDC2C8",
"+.	c #C0C3C8",
"@.	c #C0C5C8",
"#.	c #BDC0C5",
"$.	c #BBBEC5",
"%.	c #B7BCBF",
"&.	c #B3B8BC",
"*.	c #939AA4",
"=.	c #596273",
"-.	c #C0C0C0",
";.	c #7F8696",
">.	c #969DA7",
",.	c #C2C5CC",
"'.	c #C7CCD0",
").	c #CBCED3",
"!.	c #CFD3D6",
"~.	c #CFD5D5",
"{.	c #CDD0D5",
"].	c #C7CAD1",
"^.	c #C3C8CC",
"/.	c #BEC2C5",
"(.	c #969EA9",
"_.	c #818795",
":.	c #9DA1AC",
"<.	c #838997",
"[.	c #C5CACE",
"}.	c #CED1D6",
"|.	c #D1D5D8",
"1.	c #D7DBDE",
"2.	c #DCDDE1",
"3.	c #D9DDE0",
"4.	c #D8DCDF",
"5.	c #D2D5DA",
"6.	c #CCD1D5",
"7.	c #C7CACF",
"8.	c #858D9A",
"9.	c #9DA0A7",
"0.	c #BFBFBF",
"a.	c #B9BABA",
"b.	c #838695",
"c.	c #ACB3BD",
"d.	c #D3D7D8",
"e.	c #DBDFE2",
"f.	c #DDE0E5",
"g.	c #E1E2E4",
"h.	c #E3E4E8",
"i.	c #DFE0E4",
"j.	c #DADFE3",
"k.	c #D3D6DD",
"l.	c #ADB4BE",
"m.	c #828993",
"n.	c #BABBBB",
"o.	c #B4B9BD",
"p.	c #8C92A0",
"q.	c #BDC0C7",
"r.	c #DBDEE3",
"s.	c #E0E4E7",
"t.	c #E5E6EA",
"u.	c #D9DEE1",
"v.	c #C0C0C8",
"w.	c #8C94A1",
"x.	c #B2B9C1",
"y.	c #BEBEBE",
"z.	c #C5C5C6",
"A.	c #B7BABF",
"B.	c #93969F",
"C.	c #ACB0BB",
"D.	c #C7CAD3",
"E.	c #D4D7DC",
"F.	c #D3D7DA",
"G.	c #C4CBD3",
"H.	c #ADB1BA",
"I.	c #9598A1",
"J.	c #BABAC2",
"K.	c #C3C3C4",
"L.	c #CDCDD0",
"M.	c #A9ACB3",
"N.	c #9B9FAA",
"O.	c #9CA0AC",
"P.	c #9DA0AF",
"Q.	c #9C9EAA",
"R.	c #CBCCCE",
"S.	c #C3C3C2",
"T.	c #BDBDBD",
"U.	c #BFBFBE",
"V.	c #C8C8C7",
"W.	c #DADBDB",
"X.	c #DFDFE1",
"Y.	c #DBDBDD",
"Z.	c #C7C7C7",
"`.	c #BEBEBF",
" +	c #BCBCBC",
". . . . . . . . . . . . . . . . ",
"+ + + + + + + + + + + + + + + + ",
"@ @ @ @ @ @ @ @ @ @ @ @ @ @ @ @ ",
"# # # # $ % & * = - ; $ # # # # ",
"# # # > , ' ) ! ~ { ] ^ / # # # ",
"# # ( _ : < [ } | 1 2 3 4 5 # # ",
"6 7 8 9 0 a b c d e a 0 f g h 6 ",
"6 i j k l m n o p q r s t u v # ",
"6 w x y z A B C D A E F G H I # ",
"J K L M N O O P Q R S T U V W 6 ",
"J X Y Z `  ...+.@.#.$.%.&.*.=.J ",
"-.;.>.#.,.'.).!.~.{.].^./.(._.-.",
"-.:.<.[.}.|.1.2.3.4.5.6.7.8.9.-.",
"0.a.b.c.d.e.f.g.h.i.j.k.l.m.n.0.",
"0.0.o.p.q.r.s.t.t.h.u.v.w.x.0.0.",
"y.y.z.A.B.C.D.E.F.G.H.I.J.z.y.y.",
"y.y.y.K.L.M.N.O.P.Q.M.R.S.y.y.y.",
"T.T.T.T.U.V.W.X.X.Y.Z.`.T.T.T.T.",
" + + + + + + + + + + + + + + + +"};
