/* XPM */
static char * hide_pressed_xpm[] = {
"16 19 177 2",
"  	c None",
". 	c #ECECEC",
"+ 	c #D7D7D7",
"@ 	c #C4C4C4",
"# 	c #C3C3C3",
"$ 	c #C4C3C4",
"% 	c #BBBBBB",
"& 	c #73767F",
"* 	c #4B4F58",
"= 	c #3B444B",
"- 	c #3A424D",
"; 	c #4B4F5A",
"> 	c #72757C",
", 	c #8D9194",
"' 	c #363C48",
") 	c #3B414F",
"! 	c #505761",
"~ 	c #666D77",
"{ 	c #646A76",
"] 	c #525661",
"^ 	c #3C4250",
"/ 	c #363A46",
"( 	c #8D9095",
"_ 	c #919499",
": 	c #353D4A",
"< 	c #4A5362",
"[ 	c #7C838D",
"} 	c #B6BABD",
"| 	c #EEEEF0",
"1 	c #ECECEE",
"2 	c #B6B7BC",
"3 	c #7A808C",
"4 	c #495263",
"5 	c #363E4B",
"6 	c #909398",
"7 	c #C2C2C2",
"8 	c #B7B9B8",
"9 	c #434A54",
"0 	c #57606F",
"a 	c #838C93",
"b 	c #989DA1",
"c 	c #B7B8BD",
"d 	c #DDDEE2",
"e 	c #DADEDF",
"f 	c #B3B6BB",
"g 	c #575F6C",
"h 	c #424B54",
"i 	c #B7BABA",
"j 	c #7F848A",
"k 	c #4F5668",
"l 	c #8B949B",
"m 	c #989BA2",
"n 	c #9A9EA7",
"o 	c #A4A9AF",
"p 	c #B8BEBE",
"q 	c #B9BCC1",
"r 	c #A1A9AB",
"s 	c #9A9FA3",
"t 	c #979BA6",
"u 	c #8D9598",
"v 	c #4D5665",
"w 	c #81848B",
"x 	c #5D6371",
"y 	c #717A83",
"z 	c #9CA3A9",
"A 	c #9FA2A9",
"B 	c #A1A6AA",
"C 	c #A2A7AA",
"D 	c #A6A9AE",
"E 	c #A6A9B0",
"F 	c #A0A5A9",
"G 	c #A0A4AD",
"H 	c #9AA1A7",
"I 	c #717986",
"J 	c #5F636E",
"K 	c #C1C1C1",
"L 	c #4E5567",
"M 	c #868F96",
"N 	c #A6AAB3",
"O 	c #ABAFB2",
"P 	c #000000",
"Q 	c #ABAEB3",
"R 	c #A5ACB2",
"S 	c #878E98",
"T 	c #4E5565",
"U 	c #586170",
"V 	c #919AA3",
"W 	c #B2B5BC",
"X 	c #B8BCBF",
"Y 	c #B7BCBF",
"Z 	c #B3B8BC",
"` 	c #939AA4",
" .	c #596273",
"..	c #C0C0C0",
"+.	c #7F8696",
"@.	c #969DA7",
"#.	c #BDC0C5",
"$.	c #C2C5CC",
"%.	c #C7CCD0",
"&.	c #CBCED3",
"*.	c #CFD3D6",
"=.	c #CFD5D5",
"-.	c #CDD0D5",
";.	c #C7CAD1",
">.	c #C3C8CC",
",.	c #BEC2C5",
"'.	c #969EA9",
").	c #818795",
"!.	c #9DA1AC",
"~.	c #838997",
"{.	c #C5CACE",
"].	c #CED1D6",
"^.	c #D1D5D8",
"/.	c #D7DBDE",
"(.	c #DCDDE1",
"_.	c #D9DDE0",
":.	c #D8DCDF",
"<.	c #D2D5DA",
"[.	c #CCD1D5",
"}.	c #C7CACF",
"|.	c #858D9A",
"1.	c #9DA0A7",
"2.	c #BFBFBF",
"3.	c #B9BABA",
"4.	c #838695",
"5.	c #ACB3BD",
"6.	c #D3D7D8",
"7.	c #DBDFE2",
"8.	c #DDE0E5",
"9.	c #E1E2E4",
"0.	c #E3E4E8",
"a.	c #DFE0E4",
"b.	c #DADFE3",
"c.	c #D3D6DD",
"d.	c #ADB4BE",
"e.	c #828993",
"f.	c #BABABA",
"g.	c #B4B9BD",
"h.	c #8C92A0",
"i.	c #BDC0C7",
"j.	c #DBDEE3",
"k.	c #E0E4E7",
"l.	c #E5E6EA",
"m.	c #D9DEE1",
"n.	c #C0C0C8",
"o.	c #8C94A1",
"p.	c #B2B9C1",
"q.	c #BEBEBE",
"r.	c #C5C5C6",
"s.	c #B7BABF",
"t.	c #93969F",
"u.	c #ACB0BB",
"v.	c #C7CAD3",
"w.	c #D4D7DC",
"x.	c #D3D7DA",
"y.	c #C4CBD3",
"z.	c #ADB1BA",
"A.	c #9598A1",
"B.	c #BABAC2",
"C.	c #C3C3C4",
"D.	c #CDCDD0",
"E.	c #A9ACB3",
"F.	c #9B9FAA",
"G.	c #9CA0AC",
"H.	c #9DA0AF",
"I.	c #9C9EAA",
"J.	c #CBCCCE",
"K.	c #C3C3C2",
"L.	c #BDBDBD",
"M.	c #BFBFBE",
"N.	c #C8C8C7",
"O.	c #DADBDB",
"P.	c #DFDFE1",
"Q.	c #DBDBDD",
"R.	c #C7C7C7",
"S.	c #BEBEBF",
"T.	c #BCBCBC",
". . . . . . . . . . . . . . . . ",
"+ + + + + + + + + + + + + + + + ",
"@ @ @ @ @ @ @ # # $ @ @ @ @ @ @ ",
"# # # # % & * = - ; > % # # # # ",
"# # # , ' ) ! ~ { ] ^ / ( # # # ",
"# # _ : < [ } | 1 2 3 4 5 6 # # ",
"7 8 9 0 a b c d e f b a g h i 7 ",
"7 j k l m n o p q r s t u v w # ",
"7 x y z A B C D E B F G H I J # ",
"K L M N O P P P P P P Q R S T 7 ",
"K U V W X P P P P P P Y Z `  .K ",
"..+.@.#.$.%.&.*.=.-.;.>.,.'.)...",
"..!.~.{.].^./.(._.:.<.[.}.|.1...",
"2.3.4.5.6.7.8.9.0.a.b.c.d.e.f.2.",
"2.2.g.h.i.j.k.l.l.0.m.n.o.p.2.2.",
"q.q.r.s.t.u.v.w.x.y.z.A.B.r.q.q.",
"q.q.q.C.D.E.F.G.H.I.E.J.K.q.q.q.",
"L.L.L.L.M.N.O.P.P.Q.R.S.L.L.L.L.",
"T.T.T.T.T.T.T.T.T.T.T.T.T.T.T.T."};
