/* XPM */
static char * maximize_pressed_xpm[] = {
"16 19 168 2",
"  	c None",
". 	c #ECECEC",
"+ 	c #D7D7D7",
"@ 	c #C4C4C4",
"# 	c #C3C3C3",
"$ 	c #BBBBBB",
"% 	c #73767F",
"& 	c #4B4F58",
"* 	c #3B444B",
"= 	c #3A424D",
"- 	c #4B4F5A",
"; 	c #72757C",
"> 	c #8D9194",
", 	c #363C48",
"' 	c #3B414F",
") 	c #505761",
"! 	c #666D77",
"~ 	c #646A76",
"{ 	c #525661",
"] 	c #3C4250",
"^ 	c #363A46",
"/ 	c #8D9095",
"( 	c #919499",
"_ 	c #353D4A",
": 	c #4A5362",
"< 	c #7C838D",
"[ 	c #B6BABD",
"} 	c #EEEEF0",
"| 	c #ECECEE",
"1 	c #B6B7BC",
"2 	c #7A808C",
"3 	c #495263",
"4 	c #363E4B",
"5 	c #909398",
"6 	c #C2C2C2",
"7 	c #B7B9B8",
"8 	c #434A54",
"9 	c #57606F",
"0 	c #838C93",
"a 	c #989DA1",
"b 	c #B7B8BD",
"c 	c #DDDEE2",
"d 	c #DADEDF",
"e 	c #B3B6BB",
"f 	c #575F6C",
"g 	c #424B54",
"h 	c #B8BBBB",
"i 	c #7F848A",
"j 	c #4F5668",
"k 	c #8B949B",
"l 	c #989BA2",
"m 	c #9A9EA7",
"n 	c #A4A9AF",
"o 	c #000000",
"p 	c #A1A9AB",
"q 	c #9A9FA3",
"r 	c #979BA6",
"s 	c #8D9598",
"t 	c #4D5665",
"u 	c #81848B",
"v 	c #5D6371",
"w 	c #717A83",
"x 	c #9CA3A9",
"y 	c #9FA2A9",
"z 	c #A1A6AA",
"A 	c #A2A7AA",
"B 	c #A0A5A9",
"C 	c #A0A4AD",
"D 	c #9AA1A7",
"E 	c #717986",
"F 	c #5F636E",
"G 	c #C1C1C1",
"H 	c #4E5567",
"I 	c #868F96",
"J 	c #A6AAB3",
"K 	c #ABAFB2",
"L 	c #ABAEB3",
"M 	c #A5ACB2",
"N 	c #878E98",
"O 	c #4E5565",
"P 	c #586170",
"Q 	c #919AA3",
"R 	c #B2B5BC",
"S 	c #B8BCBF",
"T 	c #B7BCBF",
"U 	c #B3B8BC",
"V 	c #939AA4",
"W 	c #596273",
"X 	c #C0C0C0",
"Y 	c #7F8696",
"Z 	c #969DA7",
"` 	c #BDC0C5",
" .	c #C2C5CC",
"..	c #C7CCD0",
"+.	c #CBCED3",
"@.	c #CDD0D5",
"#.	c #C7CAD1",
"$.	c #C3C8CC",
"%.	c #BEC2C5",
"&.	c #969EA9",
"*.	c #818795",
"=.	c #9DA1AC",
"-.	c #838997",
";.	c #C5CACE",
">.	c #CED1D6",
",.	c #D1D5D8",
"'.	c #D7DBDE",
").	c #D8DCDF",
"!.	c #D2D5DA",
"~.	c #CCD1D5",
"{.	c #C7CACF",
"].	c #858D9A",
"^.	c #9DA0A7",
"/.	c #BFBFBF",
"(.	c #B9BABA",
"_.	c #838695",
":.	c #ACB3BD",
"<.	c #D3D7D8",
"[.	c #DBDFE2",
"}.	c #DDE0E5",
"|.	c #E1E2E4",
"1.	c #E3E4E8",
"2.	c #DFE0E4",
"3.	c #DADFE3",
"4.	c #D3D6DD",
"5.	c #ADB4BE",
"6.	c #828993",
"7.	c #BABABA",
"8.	c #B4B9BD",
"9.	c #8C92A0",
"0.	c #BDC0C7",
"a.	c #DBDEE3",
"b.	c #E0E4E7",
"c.	c #E5E6EA",
"d.	c #D9DEE1",
"e.	c #C0C0C8",
"f.	c #8C94A1",
"g.	c #B2B9C1",
"h.	c #BEBEBE",
"i.	c #C5C5C6",
"j.	c #B7BABF",
"k.	c #93969F",
"l.	c #ACB0BB",
"m.	c #C7CAD3",
"n.	c #D4D7DC",
"o.	c #D3D7DA",
"p.	c #C4CBD3",
"q.	c #ADB1BA",
"r.	c #9598A1",
"s.	c #BABAC2",
"t.	c #C3C3C4",
"u.	c #CDCDD0",
"v.	c #A9ACB3",
"w.	c #9B9FAA",
"x.	c #9CA0AC",
"y.	c #9DA0AF",
"z.	c #9C9EAA",
"A.	c #CBCCCE",
"B.	c #C3C3C2",
"C.	c #BDBDBD",
"D.	c #BFBFBE",
"E.	c #C8C8C7",
"F.	c #DADBDB",
"G.	c #DFDFE1",
"H.	c #DBDBDD",
"I.	c #C7C7C7",
"J.	c #BEBEBF",
"K.	c #BCBCBC",
". . . . . . . . . . . . . . . . ",
"+ + + + + + + + + + + + + + + + ",
"@ @ @ @ @ @ @ @ @ @ @ @ @ @ @ @ ",
"# # # # $ % & * = - ; $ # # # # ",
"# # # > , ' ) ! ~ { ] ^ / # # # ",
"# # ( _ : < [ } | 1 2 3 4 5 # # ",
"6 7 8 9 0 a b c d e a 0 f g h 6 ",
"6 i j k l m n o o p q r s t u # ",
"6 v w x y z A o o z B C D E F # ",
"G H I J K o o o o o o L M N O 6 ",
"G P Q R S o o o o o o T U V W G ",
"X Y Z `  ...+.o o @.#.$.%.&.*.X ",
"X =.-.;.>.,.'.o o ).!.~.{.].^.X ",
"/.(._.:.<.[.}.|.1.2.3.4.5.6.7./.",
"/./.8.9.0.a.b.c.c.1.d.e.f.g././.",
"h.h.i.j.k.l.m.n.o.p.q.r.s.i.h.h.",
"h.h.h.t.u.v.w.x.y.z.v.A.B.h.h.h.",
"C.C.C.C.D.E.F.G.G.H.I.J.C.C.C.C.",
"K.K.K.K.K.K.K.K.K.K.K.K.K.K.K.K."};
