/* XPM */
static char * copy of menu_inactive_xpm[] = {
"20 19 107 2",
"  	c None",
". 	c #ECECEC",
"+ 	c #D7D7D7",
"@ 	c #C4C4C4",
"# 	c #C3C3C3",
"$ 	c #B8B8B8",
"% 	c #86878B",
"& 	c #4F5052",
"* 	c #262729",
"= 	c #0E0F11",
"- 	c #0F1114",
"; 	c #101215",
"> 	c #0F1012",
", 	c #141619",
"' 	c #37383A",
") 	c #4A4B4D",
"! 	c #636466",
"~ 	c #88888B",
"{ 	c #B9B9B9",
"] 	c #C2C2C2",
"^ 	c #7C7C7C",
"/ 	c #464E55",
"( 	c #878E94",
"_ 	c #9DA3A8",
": 	c #A5AAAE",
"< 	c #ADB2B6",
"[ 	c #B0B5B9",
"} 	c #B1B6BA",
"| 	c #B4B9BD",
"1 	c #B3B7BA",
"2 	c #AFB3B6",
"3 	c #ABAFB2",
"4 	c #A0A4A7",
"5 	c #8A8E91",
"6 	c #6B6B6B",
"7 	c #979797",
"8 	c #373F46",
"9 	c #80888F",
"0 	c #A8AEB3",
"a 	c #ADB1B6",
"b 	c #ABB0B4",
"c 	c #ACB0B5",
"d 	c #9B9B9B",
"e 	c #3C434B",
"f 	c #626971",
"g 	c #8B9298",
"h 	c #9AA0A5",
"i 	c #9BA2A8",
"j 	c #9BA2A6",
"k 	c #9CA2A7",
"l 	c #9CA3A9",
"m 	c #404851",
"n 	c #717880",
"o 	c #7B828A",
"p 	c #7E868D",
"q 	c #808991",
"r 	c #828B93",
"s 	c #818A90",
"t 	c #818890",
"u 	c #555C62",
"v 	c #7F888E",
"w 	c #8A9299",
"x 	c #8E969D",
"y 	c #939CA4",
"z 	c #969FA7",
"A 	c #979FA8",
"B 	c #969EA5",
"C 	c #959DA4",
"D 	c #595C60",
"E 	c #858D94",
"F 	c #939AA2",
"G 	c #A0A9B1",
"H 	c #AFB8BE",
"I 	c #B4BCC3",
"J 	c #B2BAC1",
"K 	c #B2BBC1",
"L 	c #A2A2A2",
"M 	c #666B6F",
"N 	c #9CA5AD",
"O 	c #ACB6BD",
"P 	c #BFC5CC",
"Q 	c #C8CED3",
"R 	c #CED2D7",
"S 	c #C9CED4",
"T 	c #CAD0D5",
"U 	c #676868",
"V 	c #BFBFBF",
"W 	c #959595",
"X 	c #6B6E72",
"Y 	c #959CA2",
"Z 	c #C6CCD1",
"` 	c #DBDFE2",
" .	c #DBE0E2",
"..	c #D8DCDF",
"+.	c #DADEE1",
"@.	c #616162",
"#.	c #ABABAB",
"$.	c #777777",
"%.	c #5B5B5B",
"&.	c #414141",
"*.	c #373737",
"=.	c #484848",
"-.	c #6A6A6A",
";.	c #686868",
">.	c #BEBEBE",
",.	c #BDBDBD",
"'.	c #BCBCBC",
". . . . . . . . . . . . . . . . . . . . ",
"+ + + + + + + + + + + + + + + + + + + + ",
"@ @ @ @ @ @ @ @ @ @ @ @ @ @ @ @ @ @ @ @ ",
"# # # # # # # # # # # # # # # # # # # # ",
"# # # # # # # # # # # # # # # # # # # # ",
"# # $ % & * = - ; > > ; , ' ) ! ~ { # # ",
"] ^ / ( _ : < [ } | | 1 } 2 3 4 5 6 ^ ] ",
"7 8 9 0 a a a b b c c b b a a a 0 9 8 d ",
"e f g h i j k _ h l l h _ k j i h g f e ",
"m n o p 9 q r s t 9 9 t s r q 9 p o n m ",
"u v w x y z A B C A A C B A z y x w v u ",
"D E F G H I J I J K K J I J I H G F E D ",
"L M N O P Q R R S T T S R R Q P O N M U ",
"V W X Y Z `  ... .+.+. ... .` Z Y X @.V ",
"V V #.$.%.&.*.*.*.*.*.*.*.*.*.=.-.;.V V ",
">.>.>.>.>.>.>.>.>.>.>.>.>.>.>.>.>.>.>.>.",
">.>.>.>.>.>.>.>.>.>.>.>.>.>.>.>.>.>.>.>.",
",.,.,.,.,.,.,.,.,.,.,.,.,.,.,.,.,.,.,.,.",
"'.'.'.'.'.'.'.'.'.'.'.'.'.'.'.'.'.'.'.'."};
